{"title":"Madeinusa_2006_dvdrip_DayakAn9el_ES-EN.mkv","uid":7268875,"size":1045996190,"categoryP":"video","categoryS":"movies","magnet":"?xt=urn:btih:bbaebad4f19c23b8e05d5dd7a468f276b76d8e41&amp;dn=Madeinusa_2006_dvdrip_DayakAn9el_ES-EN.mkv&amp;tr=udp%3A%2F%2Ftracker.openbittorrent.com%3A80&amp;tr=udp%3A%2F%2Fopen.demonii.com%3A1337&amp;tr=udp%3A%2F%2Ftracker.coppersurfer.tk%3A6969&amp;tr=udp%3A%2F%2Fexodus.desync.com%3A6969","seeders":0,"leechers":1,"uploader":"DayakAn9el","files":-1,"time":1336986242,"description":"DVD rip h.264 of the Peruvian movie Madeinusa\n\n\nffprobe:\n\nStream #0.0(eng): Video: h264 (High), yuv420p, 720x576 [PAR 2872:2025 DAR 718:405], PAR 173:122 DAR 865:488, 25 fps, 100 tbr, 1k tbn, 180k tbc (default)\n    Stream #0.1(spa): Audio: aac, 48000 Hz, stereo, s16 (default)\n    Stream #0.2(spa): Subtitle: dvdsub (default)\n    Stream #0.3(eng): Subtitle: dvdsub","torrent":{"xt":"urn:btih:bbaebad4f19c23b8e05d5dd7a468f276b76d8e41","amp;dn":"Madeinusa_2006_dvdrip_DayakAn9el_ES-EN.mkv","amp;tr":["udp%3A%2F%2Ftracker.openbittorrent.com%3A80","udp%3A%2F%2Fopen.demonii.com%3A1337","udp%3A%2F%2Ftracker.coppersurfer.tk%3A6969","udp%3A%2F%2Fexodus.desync.com%3A6969"],"infoHash":"bbaebad4f19c23b8e05d5dd7a468f276b76d8e41","infoHashBuffer":{"type":"Buffer","data":[187,174,186,212,241,156,35,184,224,93,93,215,164,104,242,118,183,109,142,65]},"announce":[],"urlList":[]}}